<svg width="478" height="478" viewBox="0 0 478 478" fill="none" xmlns="http://www.w3.org/2000/svg">
<path id="Vector" d="M238.933 0C106.974 0 0 106.974 0 238.933C0 370.892 106.974 477.866 238.933 477.866C370.892 477.866 477.866 370.892 477.866 238.933C477.866 106.974 370.893 0 238.933 0ZM320.357 403.926C314.19 411.054 303.412 411.833 296.284 405.665C296.114 405.518 295.947 405.367 295.783 405.214L125.116 251.614C118.113 245.305 117.55 234.514 123.858 227.511C124.255 227.07 124.675 226.65 125.116 226.253L295.783 72.653C302.662 66.209 313.462 66.561 319.906 73.44C326.35 80.319 325.998 91.119 319.119 97.563C318.955 97.717 318.788 97.867 318.618 98.014L162.133 238.933L318.617 379.852C325.746 386.02 326.524 396.798 320.357 403.926Z" fill="#413C6C"/>
</svg>
