<svg width="2500" height="2160" viewBox="0 0 2500 2160" fill="none" xmlns="http://www.w3.org/2000/svg">
<g id="gClassroom">
<path id="Vector" d="M227.273 227.727H2272.73V1932.27H227.273V227.727Z" fill="#0F9D58"/>
<path id="Vector_2" d="M1704.55 1136.82C1775.09 1136.82 1832.39 1079.53 1832.39 1008.98C1832.39 938.428 1775.09 881.136 1704.55 881.136C1634 881.136 1576.7 938.428 1576.7 1008.98C1576.7 1079.53 1634 1136.82 1704.55 1136.82ZM1704.55 1222.05C1567.71 1222.05 1420.45 1294.49 1420.45 1384.45V1477.73H1988.64V1384.45C1988.64 1294.49 1841.38 1222.05 1704.55 1222.05ZM795.455 1136.82C866.004 1136.82 923.295 1079.53 923.295 1008.98C923.295 938.428 866.004 881.136 795.455 881.136C724.905 881.136 667.614 938.428 667.614 1008.98C667.614 1079.53 724.905 1136.82 795.455 1136.82ZM795.455 1222.05C658.617 1222.05 511.364 1294.49 511.364 1384.45V1477.73H1079.55V1384.45C1079.55 1294.49 932.292 1222.05 795.455 1222.05Z" fill="#57BB8A"/>
<path id="Vector_3" d="M1250 1023.18C1344.22 1023.18 1420.45 946.951 1420.45 852.727C1420.45 758.504 1344.22 682.273 1250 682.273C1155.78 682.273 1079.55 758.504 1079.55 852.727C1079.55 946.951 1155.78 1023.18 1250 1023.18ZM1250 1136.82C1058.24 1136.82 852.273 1238.62 852.273 1364.09V1477.73H1647.73V1364.09C1647.73 1238.62 1441.76 1136.82 1250 1136.82Z" fill="#F7F7F7"/>
<path id="Vector_4" d="M1477.27 1818.64H1988.64V1932.27H1477.27V1818.64Z" fill="#F1F1F1"/>
<path id="Vector_5" d="M2329.55 0.454529H170.455C76.2311 0.454529 0 76.6856 0 170.909V1989.09C0 2083.31 76.2311 2159.55 170.455 2159.55H2329.55C2423.77 2159.55 2500 2083.31 2500 1989.09V170.909C2500 76.6856 2423.77 0.454529 2329.55 0.454529ZM2272.73 1932.27H227.273V227.727H2272.73V1932.27Z" fill="#F4B400"/>
<path id="Vector_6" opacity="0.2" d="M2329.55 0.454529H170.455C76.2311 0.454529 0 76.6856 0 170.909V185.114C0 90.8901 76.2311 14.6591 170.455 14.6591H2329.55C2423.77 14.6591 2500 90.8901 2500 185.114V170.909C2500 76.6856 2423.77 0.454529 2329.55 0.454529Z" fill="white"/>
<path id="Vector_7" opacity="0.2" d="M2329.55 2145.34H170.455C76.2311 2145.34 0 2069.11 0 1974.89V1989.09C0 2083.31 76.2311 2159.55 170.455 2159.55H2329.55C2423.77 2159.55 2500 2083.31 2500 1989.09V1974.89C2500 2069.11 2423.77 2145.34 2329.55 2145.34Z" fill="#BF360C"/>
<path id="Vector_8" d="M1987.69 1932.27H1476.33L1703.6 2159.55H2214.49L1987.69 1932.27Z" fill="url(#paint0_linear)"/>
<path id="Vector_9" opacity="0.2" d="M227.273 213.523H2272.73V227.727H227.273V213.523Z" fill="#263238"/>
<path id="Vector_10" opacity="0.2" d="M227.273 1932.27H2272.73V1946.48H227.273V1932.27Z" fill="white"/>
<path id="Vector_11" d="M2329.55 0.454529H170.455C76.2311 0.454529 0 76.6856 0 170.909V1989.09C0 2083.31 76.2311 2159.55 170.455 2159.55H2329.55C2423.77 2159.55 2500 2083.31 2500 1989.09V170.909C2500 76.6856 2423.77 0.454529 2329.55 0.454529Z" fill="url(#paint1_radial)"/>
</g>
<defs>
<linearGradient id="paint0_linear" x1="1845.43" y1="1935.42" x2="1845.43" y2="2161.91" gradientUnits="userSpaceOnUse">
<stop stop-color="#BF360C" stop-opacity="0.2"/>
<stop offset="1" stop-color="#BF360C" stop-opacity="0.02"/>
</linearGradient>
<radialGradient id="paint1_radial" cx="0" cy="0" r="1" gradientUnits="userSpaceOnUse" gradientTransform="translate(73.5844 51.0634) scale(10315 10315)">
<stop stop-color="white" stop-opacity="0.1"/>
<stop offset="1" stop-color="white" stop-opacity="0"/>
</radialGradient>
</defs>
</svg>
