<svg width="425" height="424" viewBox="0 0 425 424" fill="none" xmlns="http://www.w3.org/2000/svg">
<g id="google">
<path id="Vector" d="M332.68 84L321.72 95.84C311 107.36 293.72 109.2 280.52 100.64C258.84 86.64 229.08 75.6 192.52 81.68C153 88.32 119.16 112.48 99.3999 145.44L35.1599 96.8C72.9199 38.56 138.6 0 213 0C253 0 292.52 12.48 327.16 35.68C343.48 46.64 346.04 69.68 332.68 84Z" fill="#FE4B32"/>
<path id="Vector_2" d="M81.08 207.28C80.36 227.04 84.04 245.92 91.24 262.96L25.56 311.36C14.76 291.28 7.15996 269.12 3.55996 245.6C-4.92004 190.56 7.87996 138.56 35.16 96.8L99.4 145.44C88.44 163.76 81.8 184.88 81.08 207.28Z" fill="#FCBD1B"/>
<path id="Vector_3" d="M356.6 370.24C320.2 402.8 271.72 422.8 217.72 423.92C136.28 425.6 62.2801 380.24 25.5601 311.36L91.2401 262.96C111.24 310.48 158.36 344 213 344C244.52 344 273.16 333.76 295.64 316.48L356.6 370.24Z" fill="#42D778"/>
<path id="Vector_4" d="M425 215.76C425.08 277.6 398.92 332.4 356.6 370.24L295.64 316.48C312.44 303.6 325.8 286.8 334.36 267.28C336.68 262 332.76 256 327 256H249C231.32 256 217 241.68 217 224V208C217 190.32 231.32 176 249 176H385C407 176 425 193.76 425 215.76Z" fill="#4C8AFC"/>
</g>
</svg>
