<svg width="512" height="512" viewBox="0 0 512 512" fill="none" xmlns="http://www.w3.org/2000/svg">
<g id="bell">
<g id="Group">
<path id="Vector" d="M256 512C397.385 512 512 397.385 512 256C512 114.615 397.385 0 256 0C114.615 0 0 114.615 0 256C0 397.385 114.615 512 256 512Z" fill="#7584F2"/>
</g>
<path id="Vector_2" d="M512 256C512 246.284 511.458 236.694 510.404 227.259L380.368 97.222L109.883 386.109L234.918 511.144C241.87 511.711 248.901 512 256 512C397.385 512 512 397.385 512 256Z" fill="#4855B7"/>
<g id="Group_2">
<path id="Vector_3" d="M256 433.057C282.449 433.057 303.891 411.615 303.891 385.166C303.891 358.717 282.449 337.275 256 337.275C229.551 337.275 208.109 358.717 208.109 385.166C208.109 411.615 229.551 433.057 256 433.057Z" fill="#FFCE00"/>
</g>
<g id="Group_3">
<path id="Vector_4" d="M256 337.275C255.911 337.275 255.823 337.281 255.734 337.282V433.051C255.823 433.051 255.911 433.058 256 433.058C282.45 433.058 303.891 411.616 303.891 385.167C303.891 358.717 282.45 337.275 256 337.275Z" fill="#FDBA12"/>
</g>
<g id="Group_4">
<path id="Vector_5" d="M389.874 355.811H122.126L176.136 152.37C185.751 116.155 218.53 90.942 256 90.942C293.47 90.942 326.249 116.155 335.864 152.37L389.874 355.811Z" fill="#FFCE00"/>
</g>
<g id="Group_5">
<path id="Vector_6" d="M335.864 152.37C326.249 116.155 293.47 90.942 256 90.942C255.911 90.942 255.823 90.947 255.734 90.948V355.811H389.874L335.864 152.37Z" fill="#FDBA12"/>
</g>
<g id="Group_6">
<path id="Vector_7" d="M109.883 325.512H402.118V386.109H109.883V325.512Z" fill="#FFAA00"/>
</g>
<g id="Group_7">
<path id="Vector_8" d="M255.734 325.512H402.117V386.109H255.734V325.512Z" fill="#FF9500"/>
</g>
</g>
</svg>
