<svg width="41" height="41" viewBox="0 0 41 41" fill="none" xmlns="http://www.w3.org/2000/svg">
<g id="sb">
<path id="Vector" d="M13.9026 25.345L16.5271 27.9696L13.0277 31.469L10.4031 28.8444L13.9026 25.345Z" fill="#A4BDE0"/>
<path id="Vector_2" d="M13.0275 24.4702L14.7772 26.2199L11.2778 29.7194L9.52806 27.9697L13.0275 24.4702Z" fill="#B0D0FF"/>
<path id="Vector_3" d="M6.66276 39.5397C6.66326 39.5402 12.151 32.3491 12.151 32.3491L10.401 28.8491L1.08725 39.9129C2.53702 41.3626 4.88747 41.3626 6.33724 39.9129C6.45578 39.7943 6.5636 39.6693 6.66276 39.5397V39.5397Z" fill="#8D6ED1"/>
<path id="Vector_4" d="M4.58726 38.1629C4.70581 38.0444 4.81363 37.9193 4.91279 37.7897C4.91328 37.7902 10.401 30.5991 10.401 30.5991V28.8491H8.65105L1.46004 34.3369C1.33093 34.4366 1.20587 34.5444 1.08733 34.663C-0.362442 36.1127 -0.362442 38.4632 1.08733 39.9129C1.5705 40.3961 3.13749 39.6126 4.58726 38.1629Z" fill="#A381E6"/>
<path id="Vector_5" d="M26.1509 29.6982C34.3518 29.6982 41 23.05 41 14.8491C41 6.64817 34.3518 0 26.1509 0C17.95 0 11.3018 6.64817 11.3018 14.8491C11.3018 23.05 17.95 29.6982 26.1509 29.6982Z" fill="#A4BDE0"/>
<path id="Vector_6" d="M17.401 27.0988L15.651 25.3489L13.901 27.0988L15.651 28.8488C16.1343 29.3321 16.9177 29.3321 17.401 28.8488C17.8842 28.3656 17.8842 27.5821 17.401 27.0988Z" fill="#B0D0FF"/>
<path id="Vector_7" d="M15.651 27.0989C16.1342 26.6157 16.1342 25.8322 15.651 25.349L13.901 23.599C13.4178 23.1158 12.6343 23.1158 12.151 23.599C11.6678 24.0823 11.6678 24.8657 12.151 25.349L13.901 27.0989C14.3843 27.5822 15.1677 27.5822 15.651 27.0989Z" fill="#C4E3FA"/>
<path id="Vector_8" d="M13.901 30.5991L12.1511 28.8491L10.4011 30.5991L12.1511 32.3491C12.6343 32.8323 13.4178 32.8323 13.901 32.3491C14.3843 31.8658 14.3843 31.0823 13.901 30.5991Z" fill="#B0D0FF"/>
<path id="Vector_9" d="M12.151 30.5989C12.6342 30.1157 12.6342 29.3322 12.151 28.849L10.401 27.099C9.91776 26.6158 9.1343 26.6158 8.65105 27.099C8.16779 27.5823 8.16779 28.3657 8.65105 28.849L10.401 30.5989C10.8843 31.0822 11.6678 31.0822 12.151 30.5989Z" fill="#C4E3FA"/>
<path id="Vector_10" d="M34.9008 6.09912L17.401 23.599C22.2334 28.4314 30.0684 28.4314 34.9008 23.599C39.7333 18.7665 39.7333 10.9316 34.9008 6.09912V6.09912Z" fill="#E3F5FF"/>
<path id="Vector_11" d="M33.1508 21.8491C37.9833 17.0166 38.7668 9.96518 34.9008 6.09921C30.0683 1.26673 22.2334 1.26673 17.401 6.09921C12.5685 10.9317 12.5685 18.7666 17.401 23.5991C21.2669 27.465 28.3184 26.6815 33.1508 21.8491V21.8491Z" fill="white"/>
</g>
</svg>
